<svg xmlns="http://www.w3.org/2000/svg" xmlns:xlink="http://www.w3.org/1999/xlink" xmlns:inkscape="http://www.inkscape.org/namespaces/inkscape" version="1.1" width="299.039" height="182.015" viewBox="0 0 299.039 182.015">
<path transform="matrix(1,0,0,-1,119.454,60.942)" stroke-width=".59776" stroke-linecap="butt" stroke-miterlimit="10" stroke-linejoin="miter" fill="none" stroke="#000000" d="M42.5202 0C42.5202 23.48355 23.48355 42.5202 0 42.5202-23.48355 42.5202-42.5202 23.48355-42.5202 0-42.5202-23.48355-23.48355-42.5202 0-42.5202 23.48355-42.5202 42.5202-23.48355 42.5202 0ZM0 0"/>
<path transform="matrix(1,0,0,-1,119.454,60.942)" d="M2.11343 0C2.11343 1.16722 1.16722 2.11343 0 2.11343-1.16722 2.11343-2.11343 1.16722-2.11343 0-2.11343-1.16722-1.16722-2.11343 0-2.11343 1.16722-2.11343 2.11343-1.16722 2.11343 0ZM0 0"/>
<text xml:space="preserve" transform="matrix(1 0 -0 1 0 182.015)" font-size="9.9626" font-family="Computer Modern" font-style="italic"><tspan y="-113.164" x="114.372">x</tspan></text>
<text xml:space="preserve" transform="matrix(1 0 -0 1 0 182.015)" font-size="6.9738" font-family="Computer Modern"><tspan y="-111.67" x="120.066">1</tspan></text>
<path transform="matrix(1,0,0,-1,119.454,60.942)" stroke-width=".59776" stroke-linecap="butt" stroke-dasharray="2.98883,2.98883" stroke-miterlimit="10" stroke-linejoin="miter" fill="none" stroke="#000000" d="M-54.97427-115.10657 115.10657 54.97427"/>
<path transform="matrix(1,0,0,-1,119.454,60.942)" stroke-width=".79701" stroke-linecap="butt" stroke-miterlimit="10" stroke-linejoin="miter" fill="none" stroke="#000000" d="M-113.38724 0H0"/>
<path transform="matrix(1,0,0,-1,62.361875,60.942)" stroke-width=".79701" stroke-linecap="round" stroke-linejoin="round" fill="none" stroke="#000000" d="M-2.55046 3.11095C-2.0845 1.24435-1.04614 .36295 0 0-1.04614-.36295-2.0845-1.24435-2.55046-3.11095"/>
<text xml:space="preserve" transform="matrix(1 0 -0 1 .0000038146974 182.015)" font-size="9.9626" font-family="Computer Modern" font-style="italic"><tspan y="-126.287" x="58.111">v</tspan></text>
<text xml:space="preserve" transform="matrix(1 0 -0 1 .0000038146974 182.015)" font-size="6.9738" font-family="Computer Modern"><tspan y="-124.792" x="62.941">1</tspan></text>
<path transform="matrix(1,0,0,-1,119.454,60.942)" stroke-width=".79701" stroke-linecap="butt" stroke-miterlimit="10" stroke-linejoin="miter" fill="none" stroke="#0000ff" d="M0 0 40.08847 40.08847"/>
<path transform="matrix(.7071,-.7071,-.7071,-.7071,139.19353,41.20247)" stroke-width=".79701" stroke-linecap="round" stroke-linejoin="round" fill="none" stroke="#0000ff" d="M-2.55046 3.11095C-2.0845 1.24435-1.04614 .36295 0 0-1.04614-.36295-2.0845-1.24435-2.55046-3.11095"/>
<text fill="#0000ff" xml:space="preserve" transform="matrix(1 0 -0 1 0 182.01502)" font-size="9.9626" font-family="Computer Modern" font-style="italic"><tspan y="-147.309" x="134.848">v</tspan></text>
<text fill="#0000ff" xml:space="preserve" transform="matrix(1 0 -0 1 0 182.01502)" font-size="6.9738" font-family="Computer Modern" font-style="italic"><tspan y="-150.92401" x="140.035">&#x2032;</tspan></text>
<text fill="#0000ff" xml:space="preserve" transform="matrix(1 0 -0 1 0 182.01502)" font-size="6.9738" font-family="Computer Modern"><tspan y="-144.83602" x="139.677">1</tspan></text>
<path transform="matrix(1,0,0,-1,119.454,60.942)" stroke-width=".59776" stroke-linecap="butt" stroke-miterlimit="10" stroke-linejoin="miter" fill="none" stroke="#000000" d="M102.65292-60.1327C102.65292-36.64915 83.61627-17.6125 60.1327-17.6125 36.64915-17.6125 17.6125-36.64915 17.6125-60.1327 17.6125-83.61627 36.64915-102.65292 60.1327-102.65292 83.61627-102.65292 102.65292-83.61627 102.65292-60.1327ZM60.1327-60.1327"/>
<path transform="matrix(1,0,0,-1,119.454,60.942)" d="M62.24615-60.1327C62.24615-58.96548 61.29993-58.01927 60.1327-58.01927 58.96548-58.01927 58.01927-58.96548 58.01927-60.1327 58.01927-61.29993 58.96548-62.24615 60.1327-62.24615 61.29993-62.24615 62.24615-61.29993 62.24615-60.1327ZM60.1327-60.1327"/>
<text xml:space="preserve" transform="matrix(1 0 -0 1 0 182.015)" font-size="9.9626" font-family="Computer Modern" font-style="italic"><tspan y="-53.875" x="183.205">x</tspan></text>
<text xml:space="preserve" transform="matrix(1 0 -0 1 0 182.015)" font-size="6.9738" font-family="Computer Modern"><tspan y="-52.38" x="188.899">2</tspan></text>
<path transform="matrix(1,0,0,-1,119.454,60.942)" stroke-width=".79701" stroke-linecap="butt" stroke-miterlimit="10" stroke-linejoin="miter" fill="none" stroke="#0000ff" d="M60.1327-60.1327 40.74203-113.40755"/>
<path transform="matrix(-.34203,.93967,.93967,.34203,170.02834,147.33502)" stroke-width=".79701" stroke-linecap="round" stroke-linejoin="round" fill="none" stroke="#0000ff" d="M-2.55046 3.11095C-2.0845 1.24435-1.04614 .36295 0 0-1.04614-.36295-2.0845-1.24435-2.55046-3.11095"/>
<text fill="#0000ff" xml:space="preserve" transform="matrix(1 0 -0 1 0 182.01502)" font-size="9.9626" font-family="Computer Modern" font-style="italic"><tspan y="-40.496" x="165.241">v</tspan></text>
<text fill="#0000ff" xml:space="preserve" transform="matrix(1 0 -0 1 0 182.01502)" font-size="6.9738" font-family="Computer Modern" font-style="italic"><tspan y="-44.111" x="170.428">&#x2032;</tspan></text>
<text fill="#0000ff" xml:space="preserve" transform="matrix(1 0 -0 1 0 182.01502)" font-size="6.9738" font-family="Computer Modern"><tspan y="-38.023" x="170.06999">2</tspan></text>
<path transform="matrix(1,0,0,-1,119.454,60.942)" stroke-width=".79701" stroke-linecap="butt" stroke-miterlimit="10" stroke-linejoin="miter" fill="none" stroke="#000000" d="M173.51995-60.1327H60.1327"/>
<path transform="matrix(-1,-0,0,1,236.67887,121.07471)" stroke-width=".79701" stroke-linecap="round" stroke-linejoin="round" fill="none" stroke="#000000" d="M-2.55046 3.11095C-2.0845 1.24435-1.04614 .36295 0 0-1.04614-.36295-2.0845-1.24435-2.55046-3.11095"/>
<text xml:space="preserve" transform="matrix(1 0 -0 1 0 182.015)" font-size="9.9626" font-family="Computer Modern" font-style="italic"><tspan y="-66.155" x="231.629">v</tspan></text>
<text xml:space="preserve" transform="matrix(1 0 -0 1 0 182.015)" font-size="6.9738" font-family="Computer Modern"><tspan y="-64.659999" x="236.458">2</tspan></text>
<path transform="matrix(1,0,0,-1,119.454,60.942)" stroke-width=".79701" stroke-linecap="butt" stroke-miterlimit="10" stroke-linejoin="miter" fill="none" stroke="#ff0000" d="M60.1327-60.1327 0 0"/>
<path transform="matrix(-.7071,-.7071,-.7071,.7071,149.86896,91.35695)" stroke-width=".79701" stroke-linecap="round" stroke-linejoin="round" fill="none" stroke="#ff0000" d="M-2.55046 3.11095C-2.0845 1.24435-1.04614 .36295 0 0-1.04614-.36295-2.0845-1.24435-2.55046-3.11095"/>
<text fill="#ff0000" xml:space="preserve" transform="matrix(1 0 -0 1 0 182.015)" font-size="9.9626" font-family="Computer Modern" font-style="italic"><tspan y="-88.849" x="158.908 163.55059">&#x03b5;&#x03c9;</tspan></text>
<text fill="#ff0000" xml:space="preserve" transform="matrix(1 0 -0 1 0 182.015)" font-size="9.9626" font-family="Computer Modern" font-style="italic"><tspan y="-88.849" x="172.88553">&#x2261;</tspan></text>
<text fill="#ff0000" xml:space="preserve" transform="matrix(1 0 -0 1 0 182.015)" font-size="9.9626" font-family="Computer Modern" font-style="italic"><tspan y="-88.849" x="183.39608">x</tspan></text>
<text fill="#ff0000" xml:space="preserve" transform="matrix(1 0 -0 1 0 182.015)" font-size="6.9738" font-family="Computer Modern"><tspan y="-87.354" x="189.09">1</tspan></text>
<text fill="#ff0000" xml:space="preserve" transform="matrix(1 0 -0 1 0 182.015)" font-size="9.9626" font-family="Computer Modern" font-style="italic"><tspan y="-88.849" x="195.773">&#x2212;</tspan></text>
<text fill="#ff0000" xml:space="preserve" transform="matrix(1 0 -0 1 0 182.015)" font-size="9.9626" font-family="Computer Modern" font-style="italic"><tspan y="-88.849" x="205.7356">x</tspan></text>
<text fill="#ff0000" xml:space="preserve" transform="matrix(1 0 -0 1 0 182.015)" font-size="6.9738" font-family="Computer Modern"><tspan y="-87.354" x="211.429">2</tspan></text>
</svg>
