<?xml version="1.0" standalone="no"?>
<!DOCTYPE svg PUBLIC "-//W3C//DTD SVG 20010904//EN"
 "http://www.w3.org/TR/2001/REC-SVG-20010904/DTD/svg10.dtd">
<svg version="1.0" xmlns="http://www.w3.org/2000/svg"
 width="1123.000000pt" height="1123.000000pt" viewBox="0 0 1123.000000 1123.000000"
 preserveAspectRatio="xMidYMid meet">
<metadata>
Created by potrace 1.14, written by Peter Selinger 2001-2017
</metadata>
<g transform="translate(0.000000,1123.000000) scale(0.100000,-0.100000)"
fill="#000000" stroke="none">
<path d="M6330 9402 c0 -4 -10 -41 -21 -82 -32 -116 -81 -303 -84 -323 -2 -10
-9 -32 -15 -50 -6 -18 -29 -99 -50 -182 -22 -82 -42 -157 -44 -165 -2 -8 -16
-60 -30 -115 -14 -55 -37 -140 -51 -190 -14 -49 -32 -119 -41 -155 -8 -36 -18
-72 -21 -80 -3 -8 -7 -19 -8 -25 -2 -5 -22 -82 -45 -170 -52 -196 -70 -266
-74 -285 -3 -16 -27 -18 -91 -6 -186 35 -482 39 -593 7 -18 -5 -35 -10 -37
-10 -21 1 -92 -15 -102 -23 -7 -6 -13 -8 -13 -4 0 3 -12 1 -27 -5 -16 -6 -35
-12 -43 -14 -51 -11 -242 -94 -248 -107 -2 -5 -9 -8 -16 -8 -7 0 -41 -18 -75
-40 -34 -22 -66 -40 -71 -40 -4 0 -10 -3 -12 -7 -1 -5 -30 -28 -63 -53 -33
-25 -72 -57 -87 -72 -14 -16 -31 -28 -36 -28 -6 0 -12 -4 -14 -9 -1 -5 -30
-38 -63 -74 -69 -76 -76 -84 -121 -143 -19 -24 -34 -48 -34 -53 0 -5 -4 -11
-8 -13 -13 -5 -71 -106 -65 -112 4 -3 2 -6 -4 -6 -8 0 -43 -68 -98 -195 -8
-16 -17 -43 -21 -60 -4 -16 -9 -34 -13 -40 -3 -5 -7 -14 -8 -20 -54 -224 -65
-309 -64 -470 0 -110 13 -260 21 -260 1 0 3 -9 4 -20 1 -11 6 -38 11 -60 4
-22 9 -46 11 -54 7 -38 48 -161 54 -161 3 0 6 -9 7 -21 3 -31 125 -273 161
-318 7 -9 34 -45 60 -81 61 -85 286 -310 310 -310 6 0 12 -3 14 -7 5 -13 76
-63 87 -63 6 0 11 -4 11 -10 0 -5 7 -10 15 -10 8 0 15 -4 15 -9 0 -5 15 -14
33 -22 17 -7 44 -21 59 -31 16 -11 28 -16 28 -13 0 3 12 -2 28 -13 15 -11 32
-20 37 -21 6 0 28 -8 50 -17 62 -25 76 -31 135 -49 73 -22 182 -46 188 -40 3
2 13 0 22 -5 49 -26 432 -30 520 -5 8 3 31 7 50 9 33 5 199 50 230 63 8 3 17
7 20 7 23 5 127 52 132 60 4 6 8 8 8 4 0 -4 15 1 33 11 17 10 55 30 82 45 28
16 53 33 56 38 3 5 10 10 15 9 10 0 140 94 167 121 10 10 21 18 26 18 4 0 14
11 21 25 7 14 17 25 22 25 5 0 30 23 56 52 26 28 56 61 67 72 29 31 85 104 85
110 0 3 15 27 34 53 44 63 109 183 99 183 -4 0 -3 4 2 8 10 6 25 37 57 117 6
17 13 35 13 40 1 6 4 17 8 25 21 58 45 146 51 193 3 17 8 43 11 57 25 104 24
482 -1 522 -4 6 -8 25 -10 42 -4 45 -11 77 -22 107 -6 15 -8 29 -6 32 3 3 1
13 -5 24 -5 10 -24 60 -42 111 -17 50 -36 92 -42 92 -6 0 -8 3 -4 6 7 7 -81
177 -94 182 -5 2 -9 10 -9 18 0 8 -4 14 -9 14 -5 0 -12 8 -16 19 -3 10 -14 29
-25 41 -11 13 -20 26 -20 31 0 4 51 50 112 102 95 80 116 94 132 85 16 -9 18
-7 14 10 -6 22 10 40 107 117 27 22 59 50 71 62 20 22 23 22 53 7 17 -9 40
-13 51 -9 15 5 34 -4 67 -31 46 -38 79 -49 90 -31 3 5 0 14 -6 20 -16 16 -14
27 4 21 10 -4 15 0 15 14 0 19 3 20 31 10 36 -12 49 -1 49 45 0 18 5 27 16 27
28 0 -4 74 -57 128 -36 39 -48 22 96 142 49 41 101 85 115 97 49 42 68 58 116
98 27 22 85 71 129 108 44 38 95 80 113 95 18 15 43 36 55 47 52 45 130 110
141 117 7 5 8 10 0 18 -7 7 -16 5 -30 -7 -10 -10 -53 -47 -94 -82 -41 -34 -89
-75 -106 -90 -17 -14 -53 -44 -80 -66 -27 -22 -83 -69 -125 -105 -42 -36 -96
-81 -120 -102 -24 -20 -55 -46 -69 -58 -14 -12 -34 -29 -45 -38 -11 -9 -45
-38 -76 -65 -31 -26 -63 -45 -70 -42 -8 3 -42 51 -75 108 -45 75 -58 103 -47
105 10 3 13 11 8 29 -6 24 -4 25 22 18 15 -3 30 -10 33 -14 18 -27 114 -49
126 -29 3 4 -13 31 -35 60 -22 29 -44 65 -50 81 -9 24 -8 27 10 27 23 0 36 27
23 45 -56 78 -107 160 -114 182 -4 16 -11 36 -15 46 -4 10 -4 17 1 15 21 -7
11 32 -19 75 -26 38 -17 43 32 17 37 -18 42 -19 48 -5 3 9 1 27 -5 40 -9 20
-9 23 3 18 22 -8 18 12 -10 57 -29 46 -30 50 -11 50 8 0 16 7 18 15 2 10 22
-1 68 -36 137 -108 154 -110 90 -14 -33 49 -37 61 -25 68 13 7 13 12 -5 38
l-21 29 29 0 c17 0 32 5 34 12 3 8 19 3 50 -15 74 -43 116 -30 68 21 -21 22
-28 44 -8 24 15 -15 45 -16 53 -2 3 5 -14 36 -38 67 -62 82 -103 145 -110 168
-6 17 -2 20 24 22 17 1 41 -2 52 -8 11 -6 34 -13 51 -16 17 -3 36 -9 43 -15
20 -16 33 1 28 38 l-4 35 47 -36 c83 -64 164 -115 174 -109 5 3 27 -6 49 -20
46 -31 83 -47 119 -53 14 -2 48 -17 77 -33 52 -30 69 -28 56 6 -4 11 -3 15 5
10 19 -11 24 14 8 39 -24 36 -20 38 21 11 40 -27 53 -26 53 6 0 15 -5 19 -19
15 -11 -2 -31 5 -47 19 -16 13 -35 23 -41 24 -15 0 -17 -34 -3 -60 7 -14 6
-17 -8 -16 -10 0 -16 -6 -16 -16 1 -13 -2 -15 -15 -9 -9 5 -44 19 -78 30 -34
11 -82 35 -107 52 -25 16 -50 28 -56 24 -11 -7 -69 31 -167 107 -65 51 -77 51
-75 -3 1 -26 -1 -28 -31 -22 -18 3 -45 12 -61 19 -35 17 -102 8 -111 -14 -3
-8 12 -44 34 -81 35 -58 48 -77 91 -128 19 -23 10 -24 -25 -3 -52 32 -59 16
-19 -40 20 -28 34 -50 32 -50 -1 0 -25 11 -52 25 -34 17 -53 22 -60 15 -14
-14 -48 -12 -70 5 -32 24 -39 -4 -10 -38 17 -20 22 -36 18 -52 -4 -16 1 -35
17 -56 32 -45 12 -33 -123 70 -41 33 -58 28 -37 -11 7 -13 7 -24 1 -30 -11
-11 0 -61 18 -83 8 -9 7 -14 -4 -18 -13 -5 -13 -10 -1 -34 16 -31 12 -42 -9
-24 -21 18 -75 31 -81 20 -3 -5 6 -29 20 -54 24 -39 25 -46 11 -51 -15 -6 -15
-9 2 -38 10 -17 26 -52 36 -79 10 -26 38 -74 62 -107 48 -66 53 -78 27 -76
-33 2 -21 -66 21 -123 44 -60 30 -68 -37 -23 -46 30 -107 33 -107 6 0 -11 -4
-12 -19 -4 -46 24 -42 6 22 -88 30 -43 62 -97 72 -120 11 -23 22 -42 27 -42 4
0 12 -10 19 -22 12 -23 17 -18 -96 -113 -26 -22 -62 -52 -79 -67 l-31 -27 -35
27 c-19 14 -43 34 -53 43 -10 9 -33 25 -52 35 -19 10 -35 22 -35 26 0 12 -78
9 -86 -3 -3 -6 -3 -14 2 -18 26 -18 83 -100 74 -106 -6 -4 -2 -21 10 -45 24
-47 12 -60 -29 -30 -38 27 -49 10 -22 -35 l20 -34 -34 16 c-18 9 -40 13 -49
10 -15 -6 -15 -9 -1 -36 14 -28 14 -30 -5 -36 -11 -4 -20 -11 -20 -16 0 -6
-21 6 -46 26 -52 39 -64 43 -64 20 0 -13 -4 -13 -22 -3 -13 7 -26 17 -29 21
-3 5 -10 8 -15 8 -17 -1 -44 10 -44 20 0 5 -6 9 -14 9 -7 0 -19 7 -26 15 -14
17 -85 21 -95 5 -8 -12 13 -80 25 -80 4 0 10 -9 13 -20 5 -18 3 -18 -19 -4
-13 9 -29 14 -36 12 -7 -3 -53 25 -103 62 -89 66 -218 146 -246 152 -7 2 -20
9 -27 16 -8 7 -17 10 -22 7 -5 -3 -10 -2 -12 3 -3 8 -114 53 -194 77 l-51 16
23 87 c13 48 26 96 28 107 2 11 18 71 36 134 17 62 33 120 35 130 11 45 91
346 116 436 11 39 22 81 25 95 3 14 10 43 16 65 6 22 12 45 14 50 1 6 9 36 18
67 10 31 19 69 22 84 3 15 7 31 10 35 3 6 76 279 98 369 2 8 15 54 29 102 20
70 22 88 11 92 -8 3 -14 2 -14 -2z m1145 -1883 c43 -49 58 -82 41 -91 -8 -4
-12 -20 -11 -38 3 -34 -13 -39 -55 -15 -38 22 -53 19 -44 -7 6 -20 5 -21 -10
-9 -25 21 -33 4 -14 -30 9 -16 15 -29 12 -29 -3 0 -34 24 -70 52 l-65 53 28
24 c15 13 42 35 58 50 45 40 87 71 95 71 4 0 19 -14 35 -31z m-399 -62 c40
-26 79 -56 88 -66 15 -16 14 -20 -16 -46 -18 -15 -45 -39 -59 -52 l-26 -24 4
24 c3 14 0 34 -6 45 -7 14 -8 23 -1 27 17 10 11 29 -18 60 -16 17 -37 43 -47
58 -25 39 -6 33 81 -26z m170 -94 c-11 -11 -17 4 -9 23 7 18 8 18 11 1 2 -10
1 -21 -2 -24z m-610 -89 c16 -10 31 -21 34 -24 3 -4 20 -12 38 -19 18 -8 51
-27 73 -43 36 -26 68 -30 54 -7 -11 17 5 9 35 -18 l31 -27 -24 -20 c-164 -140
-153 -135 -190 -90 -18 20 -59 64 -92 97 -33 34 -52 58 -42 54 9 -4 24 -10 32
-13 21 -9 31 24 15 50 -7 11 -22 36 -33 54 l-20 34 30 -5 c17 -3 43 -13 59
-23z m403 -3 c8 -5 9 -11 3 -15 -5 -3 -15 1 -22 9 -14 16 -3 20 19 6z m-65
-36 c10 -7 15 -19 11 -24 -8 -14 -22 -6 -35 20 -12 22 -3 24 24 4z m-52 -77
c-7 -7 -10 -5 -7 8 5 29 6 30 12 16 3 -8 1 -18 -5 -24z"/>
<path d="M7152 8692 c6 -23 -16 -103 -30 -112 -13 -7 -4 -9 34 -10 56 0 91 23
74 50 -6 10 -4 21 7 33 12 12 13 21 6 28 -11 11 -93 21 -91 11z m67 -33 c-10
-19 -49 -27 -49 -10 0 26 13 38 35 33 21 -3 23 -7 14 -23z m-9 -49 c0 -13 -9
-22 -25 -26 -33 -8 -40 -1 -25 25 14 27 50 28 50 1z"/>
<path d="M5878 8196 c-36 -27 -45 -91 -15 -110 18 -12 67 7 67 25 0 7 -7 5
-19 -5 -17 -15 -20 -15 -34 -1 -19 18 -13 63 11 81 23 18 35 17 28 -2 -4 -10
-1 -14 6 -12 7 3 14 12 16 21 4 21 -35 23 -60 3z"/>
</g>
</svg>
